<svg width="256" height="256" xmlns="http://www.w3.org/2000/svg" xml:space="preserve" version="1.0">

 <g>
  <title>Layer 1</title>
  <svg y="-57.19152" x="-371.07849" viewBox="-900 -175 2300 2300" height="1000" width="1000" id="svg_1">
   <polygon id="svg_6" fill=" rgb(32, 64, 81)" points="299.776,149.134 340.968,78.662 304.296,14.351 263.104,84.823 181.472,84.388 218.144,148.699 "/>
   <polygon id="svg_7" fill=" rgb(32, 64, 81)" points="399.366,181.048 358.927,110.135 321.568,174.049 362.007,244.962 443.634,245.399 480.993,181.485 "/>
   <polygon id="svg_8" fill=" rgb(59, 105, 120)" points="195.985,352.747 154.793,423.219 191.465,487.53 232.656,417.058 314.289,417.494 277.617,353.183 "/>
   <polygon id="svg_9" fill=" rgb(59, 105, 120)" points="351.303,276.307 310.11,346.784 350.544,417.693 424.575,418.091 384.14,347.182 425.333,276.704 "/>
   <polygon id="svg_10" fill=" rgb(132, 169, 172)" points="144.458,225.565 185.651,155.088 145.216,84.179 71.186,83.781 111.62,154.69 70.427,225.168 "/>
   <polygon id="svg_11" fill=" rgb(132, 169, 172)" points="133.753,256.894 52.127,256.457 14.768,320.371 96.394,320.808 136.833,391.721 174.192,327.807 "/>
  </svg>
 </g>
</svg>
